<?xml version="1.0" encoding="UTF-8"?>
<svg width="702px" height="195px" viewBox="0 0 702 195" version="1.1" xmlns="http://www.w3.org/2000/svg" xmlns:xlink="http://www.w3.org/1999/xlink">
    <title>KoyuLogoSponsor</title>
    <g id="KoyuLogoSponsor" stroke="none" stroke-width="1" fill="none" fill-rule="evenodd">
        <g id="Group" transform="translate(0.000000, 1.000000)">
            <polygon id="Rectangle" fill="#878787" transform="translate(53.340803, 168.248748) rotate(90.000000) translate(-53.340803, -168.248748) " points="48.7835778 114.907944 57.898029 114.907944 57.898029 221.589551 48.7835778 221.589551"></polygon>
            <polygon id="Rectangle" fill="#878787" transform="translate(53.340803, 139.858504) rotate(90.000000) translate(-53.340803, -139.858504) " points="48.7835778 86.5177003 57.898029 86.5177003 57.898029 193.199307 48.7835778 193.199307"></polygon>
            <polygon id="Rectangle" fill="#878787" transform="translate(53.340803, 111.468260) rotate(90.000000) translate(-53.340803, -111.468260) " points="48.7835778 58.1274564 57.898029 58.1274564 57.898029 164.809063 48.7835778 164.809063"></polygon>
            <polygon id="Rectangle" fill="#878787" transform="translate(53.340803, 83.078016) rotate(90.000000) translate(-53.340803, -83.078016) " points="48.7835778 29.7372125 57.898029 29.7372125 57.898029 136.418819 48.7835778 136.418819"></polygon>
            <polygon id="Rectangle" fill="#878787" transform="translate(53.340803, 54.687772) rotate(90.000000) translate(-53.340803, -54.687772) " points="48.7835778 1.34696859 57.898029 1.34696859 57.898029 108.028575 48.7835778 108.028575"></polygon>
            <polygon id="Rectangle" fill="#878787" transform="translate(53.340803, 26.297528) rotate(90.000000) translate(-53.340803, -26.297528) " points="48.7835778 -27.0432753 57.898029 -27.0432753 57.898029 79.6383314 48.7835778 79.6383314"></polygon>
            <polygon id="Rectangle" fill="#000000" transform="translate(93.055112, 96.905366) rotate(90.000000) translate(-93.055112, -96.905366) " points="-3.85025372 91.2308123 189.960478 91.2308123 189.960478 102.579919 -3.85025372 102.579919"></polygon>
            <polygon id="Rectangle" fill="#000000" transform="translate(13.611362, 96.905366) rotate(90.000000) translate(-13.611362, -96.905366) " points="-83.2940034 91.2308123 110.516728 91.2308123 110.516728 102.579919 -83.2940034 102.579919"></polygon>
        </g>
        <g id="METRO-İSTANBUL-Raylı" transform="translate(156.696250, 0.920000)" fill="#000000" fill-rule="nonzero">
            <polygon id="Path" points="3.1175 38.08 3.1175 10.08 9.63625 10.08 21.20875 29.129375 17.774375 29.129375 29.07625 10.08 35.595 10.08 35.6625 38.08 28.365625 38.08 28.298125 21.178125 29.54625 21.178125 21.113125 35.324375 17.59875 35.324375 8.908125 21.178125 10.414375 21.178125 10.414375 38.08"></polygon>
            <path d="M48.5517877,20.926875 L61.5536627,20.926875 L61.5536627,26.820625 L48.5517877,26.820625 L48.5517877,20.926875 Z M49.1049127,31.940625 L63.7505377,31.940625 L63.7505377,38.08 L41.2899127,38.08 L41.2899127,10.08 L63.2180377,10.08 L63.2180377,16.219375 L49.1049127,16.219375 L49.1049127,31.940625 Z" id="Shape"></path>
            <polygon id="Path" points="74.1039245 38.08 74.1039245 16.3575 65.5189245 16.3575 65.5189245 10.08 90.6139245 10.08 90.6139245 16.3575 82.0295495 16.3575 82.0295495 38.08"></polygon>
            <path d="M93.5879097,38.08 L93.5879097,10.08 L106.36041,10.08 C108.92416,10.08 111.136556,10.4963542 112.997597,11.3290625 C114.858639,12.1617708 116.294681,13.3548958 117.305722,14.9084375 C118.316764,16.4619792 118.822285,18.3020833 118.822285,20.42875 C118.822285,22.5475 118.316764,24.3723958 117.305722,25.9034375 C116.294681,27.4344792 114.858639,28.6070833 112.997597,29.42125 C111.136556,30.2354167 108.92416,30.6425 106.36041,30.6425 L97.9835347,30.6425 L101.513535,27.30875 L101.513535,38.08 L93.5879097,38.08 Z M110.89416,38.08 L103.939785,27.8925 L112.36291,27.8925 L119.38541,38.08 L110.89416,38.08 Z M101.513535,28.175 L97.9835347,24.528125 L105.89666,24.528125 C107.551243,24.528125 108.786972,24.1644792 109.603847,23.4371875 C110.420722,22.7098958 110.82916,21.7070833 110.82916,20.42875 C110.82916,19.1425 110.420722,18.1378125 109.603847,17.4146875 C108.786972,16.6915625 107.551243,16.33 105.89666,16.33 L97.9835347,16.33 L101.513535,12.670625 L101.513535,28.175 Z" id="Shape"></path>
            <path d="M137.314931,38.633125 C135.074097,38.633125 133.002639,38.273125 131.100556,37.553125 C129.198472,36.833125 127.551077,35.8172917 126.158368,34.505625 C124.76566,33.1939583 123.682222,31.6522917 122.908056,29.880625 C122.133889,28.1089583 121.746806,26.1710417 121.746806,24.066875 C121.746806,21.963125 122.133889,20.0316667 122.908056,18.2725 C123.682222,16.5133333 124.766181,14.9753125 126.159931,13.6584375 C127.553681,12.3415625 129.19941,11.32375 131.097118,10.605 C132.994827,9.88625 135.061806,9.526875 137.298056,9.526875 C139.550139,9.526875 141.620035,9.88552083 143.507743,10.6028125 C145.395452,11.3201042 147.035243,12.3358333 148.427118,13.65 C149.818993,14.9641667 150.902014,16.5022917 151.676181,18.264375 C152.450347,20.0264583 152.837431,21.9610417 152.837431,24.068125 C152.837431,26.175625 152.450347,28.11625 151.676181,29.89 C150.902014,31.66375 149.818993,33.2057292 148.427118,34.5159375 C147.035243,35.8261458 145.395452,36.8398958 143.507743,37.5571875 C141.620035,38.2744792 139.555764,38.633125 137.314931,38.633125 Z M137.296806,32.098125 C138.368056,32.098125 139.360556,31.9085417 140.274306,31.529375 C141.188056,31.1502083 141.987118,30.6094792 142.671493,29.9071875 C143.355868,29.2048958 143.889097,28.36125 144.271181,27.37625 C144.653264,26.39125 144.844306,25.29125 144.844306,24.07625 C144.844306,22.86125 144.653785,21.7628125 144.272743,20.7809375 C143.891702,19.7990625 143.358785,18.956875 142.673993,18.254375 C141.989202,17.551875 141.190035,17.0108333 140.276493,16.63125 C139.362952,16.2516667 138.370556,16.061875 137.299306,16.061875 C136.228472,16.061875 135.234931,16.2517708 134.318681,16.6315625 C133.402431,17.0113542 132.601181,17.5528125 131.914931,18.2559375 C131.228681,18.9590625 130.694618,19.801875 130.312743,20.784375 C129.930868,21.766875 129.739931,22.8639583 129.739931,24.075625 C129.739931,25.2877083 129.93066,26.38625 130.312118,27.37125 C130.693577,28.35625 131.227118,29.2013542 131.912743,29.9065625 C132.598368,30.6117708 133.39941,31.1533333 134.315868,31.53125 C135.232327,31.9091667 136.225972,32.098125 137.296806,32.098125 Z" id="Shape"></path>
            <path d="M168.66111,38.08 L168.66111,10.08 L176.58111,10.08 L176.58111,38.08 L168.66111,38.08 Z M172.62111,7.88 C171.474443,7.88 170.527776,7.51333333 169.78111,6.78 C169.034443,6.04666667 168.66111,5.09333333 168.66111,3.92 C168.66111,2.77333333 169.034443,1.83333333 169.78111,1.1 C170.527776,0.366666667 171.474443,0 172.62111,0 C173.767776,0 174.714443,0.366666667 175.46111,1.1 C176.207776,1.83333333 176.58111,2.77333333 176.58111,3.92 C176.58111,5.09333333 176.207776,6.04666667 175.46111,6.78 C174.714443,7.51333333 173.767776,7.88 172.62111,7.88 Z" id="Shape"></path>
            <path d="M192.034876,38.633125 C189.746126,38.633125 187.541542,38.3498958 185.421126,37.7834375 C183.300709,37.2169792 181.575292,36.4822917 180.244876,35.579375 L182.849876,29.716875 C184.109042,30.531875 185.560709,31.1933333 187.204876,31.70125 C188.849042,32.2091667 190.477376,32.463125 192.089876,32.463125 C193.195292,32.463125 194.07623,32.3680208 194.732688,32.1778125 C195.389147,31.9876042 195.870501,31.72125 196.176751,31.37875 C196.483001,31.03625 196.636126,30.63875 196.636126,30.18625 C196.636126,29.5554167 196.347897,29.0540625 195.771438,28.6821875 C195.19498,28.3103125 194.436334,28.0036458 193.495501,27.7621875 C192.554667,27.5207292 191.521126,27.2804167 190.394876,27.04125 C189.268626,26.8020833 188.137688,26.4979167 187.002063,26.12875 C185.866438,25.7595833 184.828209,25.2745833 183.887376,24.67375 C182.946542,24.0729167 182.187897,23.2807292 181.611438,22.2971875 C181.03498,21.3136458 180.746751,20.0752083 180.746751,18.581875 C180.746751,16.923125 181.204459,15.409375 182.119876,14.040625 C183.035292,12.671875 184.412063,11.5773958 186.250188,10.7571875 C188.088313,9.93697917 190.389459,9.526875 193.153626,9.526875 C194.972376,9.526875 196.768626,9.73104167 198.542376,10.139375 C200.316126,10.5477083 201.895084,11.1610417 203.279251,11.979375 L200.861126,17.82625 C199.524042,17.1079167 198.202688,16.5734375 196.897063,16.2228125 C195.591438,15.8721875 194.321126,15.696875 193.086126,15.696875 C191.997376,15.696875 191.120084,15.8098958 190.454251,16.0359375 C189.788417,16.2619792 189.309147,16.5621875 189.016438,16.9365625 C188.72373,17.3109375 188.577376,17.7283333 188.577376,18.18875 C188.577376,18.80125 188.865605,19.2888542 189.442063,19.6515625 C190.018522,20.0142708 190.777063,20.3096875 191.717688,20.5378125 C192.658313,20.7659375 193.696438,20.9969792 194.832063,21.2309375 C195.967688,21.4648958 197.09873,21.7644792 198.225188,22.1296875 C199.351647,22.4948958 200.385292,22.9758333 201.326126,23.5725 C202.266959,24.1691667 203.025605,24.9546875 203.602063,25.9290625 C204.178522,26.9034375 204.466751,28.1239583 204.466751,29.590625 C204.466751,31.2227083 204.006959,32.723125 203.087376,34.091875 C202.167792,35.460625 200.791438,36.5596875 198.958313,37.3890625 C197.125188,38.2184375 194.817376,38.633125 192.034876,38.633125 Z" id="Path"></path>
            <polygon id="Path" points="213.642043 38.08 213.642043 16.3575 205.057043 16.3575 205.057043 10.08 230.152043 10.08 230.152043 16.3575 221.567668 16.3575 221.567668 38.08"></polygon>
            <path d="M228.351028,38.08 L240.714778,10.08 L248.517903,10.08 L260.894153,38.08 L252.673528,38.08 L243.000403,13.951875 L246.109778,13.951875 L236.436653,38.08 L228.351028,38.08 Z M235.109778,32.62875 L237.149778,26.7975 L250.824153,26.7975 L252.876653,32.62875 L235.109778,32.62875 Z" id="Shape"></path>
            <polygon id="Path" points="263.146787 38.08 263.146787 10.08 269.665537 10.08 285.084912 28.73375 282.006162 28.73375 282.006162 10.08 289.766162 10.08 289.766162 38.08 283.247412 38.08 267.828037 19.42625 270.906787 19.42625 270.906787 38.08"></polygon>
            <path d="M295.393676,38.08 L295.393676,10.08 L309.695551,10.08 C313.380134,10.08 316.127947,10.7563542 317.938989,12.1090625 C319.75003,13.4617708 320.655551,15.22125 320.655551,17.3875 C320.655551,18.8258333 320.27878,20.09 319.525239,21.18 C318.771697,22.27 317.708259,23.1226042 316.334926,23.7378125 C314.961593,24.3530208 313.326384,24.660625 311.429301,24.660625 L312.204926,22.76125 C314.176176,22.76125 315.895134,23.0596875 317.361801,23.6565625 C318.828468,24.2534375 319.970343,25.1214583 320.787426,26.260625 C321.604509,27.3997917 322.013051,28.77875 322.013051,30.3975 C322.013051,32.8158333 321.037426,34.7008333 319.086176,36.0525 C317.134926,37.4041667 314.271384,38.08 310.495551,38.08 L295.393676,38.08 Z M303.208676,32.37375 L309.869301,32.37375 C311.232218,32.37375 312.264718,32.1394792 312.966801,31.6709375 C313.668884,31.2023958 314.019926,30.488125 314.019926,29.528125 C314.019926,28.568125 313.668884,27.851875 312.966801,27.379375 C312.264718,26.906875 311.232218,26.670625 309.869301,26.670625 L302.655551,26.670625 L302.655551,21.2125 L308.664301,21.2125 C309.995551,21.2125 310.994718,20.9828125 311.661801,20.5234375 C312.328884,20.0640625 312.662426,19.389375 312.662426,18.499375 C312.662426,17.5910417 312.328884,16.9117708 311.661801,16.4615625 C310.994718,16.0113542 309.995551,15.78625 308.664301,15.78625 L303.208676,15.78625 L303.208676,32.37375 Z" id="Shape"></path>
            <path d="M339.043648,38.633125 C334.915731,38.633125 331.693127,37.5020833 329.375835,35.24 C327.058543,32.9779167 325.899898,29.77 325.899898,25.61625 L325.899898,10.08 L333.825523,10.08 L333.825523,25.37375 C333.825523,27.7720833 334.294898,29.4923958 335.233648,30.5346875 C336.172398,31.5769792 337.464898,32.098125 339.111148,32.098125 C340.775314,32.098125 342.072189,31.5769792 343.001773,30.5346875 C343.931356,29.4923958 344.396148,27.7720833 344.396148,25.37375 L344.396148,10.08 L352.186773,10.08 L352.186773,25.61625 C352.186773,29.77 351.028127,32.9779167 348.710835,35.24 C346.393543,37.5020833 343.171148,38.633125 339.043648,38.633125 Z" id="Path"></path>
            <polygon id="Path" points="357.574374 38.08 357.574374 10.08 365.499999 10.08 365.499999 31.8025 378.847499 31.8025 378.847499 38.08"></polygon>
            <path d="M5.97,106.08 L5.97,64.08 L23.2125,64.08 C26.92375,64.08 30.1135938,64.6764062 32.7820313,65.8692187 C35.4504688,67.0620312 37.5035938,68.7789062 38.9414063,71.0198437 C40.3792188,73.2607812 41.098125,75.9315625 41.098125,79.0321875 C41.098125,82.0978125 40.3792188,84.7396875 38.9414063,86.9578125 C37.5035938,89.1759375 35.4504688,90.8789062 32.7820313,92.0667187 C30.1135938,93.2545312 26.92375,93.8484375 23.2125,93.8484375 L10.2778125,93.8484375 L13.756875,90.3271875 L13.756875,106.08 L5.97,106.08 Z M33.40875,106.08 L22.775625,90.8325 L31.1409375,90.8325 L41.8415625,106.08 L33.40875,106.08 Z M13.756875,91.1559375 L10.2778125,87.399375 L22.8871875,87.399375 C26.3096875,87.399375 28.8915625,86.6634375 30.6328125,85.1915625 C32.3740625,83.7196875 33.2446875,81.6665625 33.2446875,79.0321875 C33.2446875,76.3628125 32.3740625,74.3007812 30.6328125,72.8460937 C28.8915625,71.3914062 26.3096875,70.6640625 22.8871875,70.6640625 L10.2778125,70.6640625 L13.756875,66.8559375 L13.756875,91.1559375 Z" id="Shape"></path>
            <path d="M68.5044486,106.08 L68.5044486,99.58125 L68.1191361,98.229375 L68.1191361,86.87625 C68.1191361,84.684375 67.4549174,82.976875 66.1264799,81.75375 C64.7980424,80.530625 62.7900736,79.9190625 60.1025736,79.9190625 C58.3088236,79.9190625 56.5475736,80.20125 54.8188236,80.765625 C53.0900736,81.33 51.6160111,82.099375 50.3966361,83.07375 L47.4866361,77.6334375 C49.1978861,76.3290625 51.2455424,75.3395313 53.6296049,74.6648438 C56.0136674,73.9901563 58.4856986,73.6528125 61.0456986,73.6528125 C65.6756986,73.6528125 69.2621049,74.7646875 71.8049174,76.9884375 C74.3477299,79.2121875 75.6191361,82.64625 75.6191361,87.290625 L75.6191361,106.08 L68.5044486,106.08 Z M58.4722611,106.470938 C56.0366361,106.470938 53.9188236,106.063125 52.1188236,105.2475 C50.3188236,104.431875 48.9325736,103.297656 47.9600736,101.844844 C46.9875736,100.392031 46.5013236,98.743125 46.5013236,96.898125 C46.5013236,95.09125 46.9369486,93.4739063 47.8081986,92.0460938 C48.6794486,90.6182813 50.0944486,89.4809375 52.0531986,88.6340625 C54.0119486,87.7871875 56.6041361,87.36375 59.8297611,87.36375 L69.1250736,87.36375 L69.1250736,92.33625 L60.3706986,92.33625 C57.8163236,92.33625 56.0958549,92.7490625 55.2092924,93.5746875 C54.3227299,94.4003125 53.8794486,95.4125 53.8794486,96.61125 C53.8794486,97.963125 54.4219486,99.0371875 55.5069486,99.8334375 C56.5919486,100.629688 58.0872611,101.027813 59.9928861,101.027813 C61.8535111,101.027813 63.5133549,100.612344 64.9724174,99.7814063 C66.4314799,98.9504688 67.4803861,97.71625 68.1191361,96.07875 L69.3885111,100.569375 C68.6597611,102.451875 67.3681986,103.906094 65.5138236,104.932031 C63.6594486,105.957969 61.3122611,106.470938 58.4722611,106.470938 Z" id="Shape"></path>
            <path d="M87.263076,118.110938 C85.671826,118.110938 84.1029197,117.858438 82.5563572,117.353438 C81.0097947,116.848438 79.7115135,116.120938 78.6615135,115.170938 L81.6465135,109.684688 C82.3958885,110.379063 83.2527635,110.920938 84.2171385,111.310313 C85.1815135,111.699688 86.1683885,111.894375 87.1777635,111.894375 C88.5171385,111.894375 89.611201,111.557344 90.459951,110.883281 C91.308701,110.209219 92.089951,109.05875 92.803701,107.431875 L94.6533885,103.273125 L95.3002635,102.37125 L107.367763,74.04375 L114.617451,74.04375 L99.602451,108.673125 C98.611826,111.080625 97.500576,112.976406 96.268701,114.360469 C95.036826,115.744531 93.6772947,116.715625 92.1901072,117.27375 C90.7029197,117.831875 89.060576,118.110938 87.263076,118.110938 Z M93.838701,107.214375 L79.4021385,74.04375 L87.1571385,74.04375 L98.9302635,101.693438 L93.838701,107.214375 Z" id="Shape"></path>
            <polygon id="Path" points="119.277723 106.08 119.277723 61.56 126.777723 61.56 126.777723 106.08"></polygon>
            <polygon id="Path" points="136.64358 106.08 136.64358 74.04375 144.14358 74.04375 144.14358 106.08"></polygon>
            <path d="M184.275426,106.674375 C180.999176,106.674375 177.860426,106.204687 174.859176,105.265312 C171.857926,104.325937 169.471363,103.111875 167.699488,101.623125 L170.431363,95.5865625 C172.117613,96.9209375 174.199488,98.0251562 176.676988,98.8992187 C179.154488,99.7732812 181.692613,100.210312 184.291363,100.210312 C186.486988,100.210312 188.262144,99.9723437 189.616832,99.4964062 C190.971519,99.0204687 191.968238,98.3685937 192.606988,97.5407812 C193.245738,96.7129687 193.565113,95.780625 193.565113,94.74375 C193.565113,93.46125 193.110269,92.4345312 192.200582,91.6635937 C191.290894,90.8926562 190.102457,90.2701562 188.635269,89.7960937 C187.168082,89.3220312 185.544801,88.8889062 183.765426,88.4967187 C181.986051,88.1045312 180.205426,87.6371875 178.423551,87.0946875 C176.641676,86.5521875 175.017301,85.8470312 173.550426,84.9792187 C172.083551,84.1114062 170.895269,82.9623437 169.985582,81.5320312 C169.075894,80.1017187 168.621051,78.2665625 168.621051,76.0265625 C168.621051,73.7396875 169.229176,71.648125 170.445426,69.751875 C171.661676,67.855625 173.519488,66.3371875 176.018863,65.1965625 C178.518238,64.0559375 181.684176,63.485625 185.516676,63.485625 C188.042926,63.485625 190.546832,63.803125 193.028394,64.438125 C195.509957,65.073125 197.676363,65.993125 199.527613,67.198125 L197.044176,73.27875 C195.172926,72.134375 193.241207,71.2934375 191.249019,70.7559375 C189.256832,70.2184375 187.323551,69.9496875 185.449176,69.9496875 C183.322926,69.9496875 181.581051,70.2090625 180.223551,70.7278125 C178.866051,71.2465625 177.878082,71.9321875 177.259644,72.7846875 C176.641207,73.6371875 176.331988,74.5996875 176.331988,75.6721875 C176.331988,76.9490625 176.786832,77.9717187 177.696519,78.7401562 C178.606207,79.5085937 179.794488,80.1198437 181.261363,80.5739062 C182.728238,81.0279687 184.352613,81.4585937 186.134488,81.8657812 C187.916363,82.2729687 189.696988,82.7390625 191.476363,83.2640625 C193.255738,83.7890625 194.879019,84.4767187 196.346207,85.3270312 C197.813394,86.1773437 199.001832,87.3164062 199.911519,88.7442187 C200.821207,90.1720312 201.276051,91.9859375 201.276051,94.1859375 C201.276051,96.4328125 200.659176,98.5042187 199.425426,100.400156 C198.191676,102.296094 196.317613,103.815781 193.803238,104.959219 C191.288863,106.102656 188.112926,106.674375 184.275426,106.674375 Z" id="Path"></path>
            <path d="M208.281823,106.08 L208.281823,74.04 L215.781823,74.04 L215.781823,106.08 L208.281823,106.08 Z M212.061823,68.76 C210.661823,68.76 209.511823,68.32 208.611823,67.44 C207.711823,66.56 207.261823,65.5 207.261823,64.26 C207.261823,62.98 207.711823,61.91 208.611823,61.05 C209.511823,60.19 210.661823,59.76 212.061823,59.76 C213.461823,59.76 214.611823,60.17 215.511823,60.99 C216.411823,61.81 216.861823,62.84 216.861823,64.08 C216.861823,65.4 216.421823,66.51 215.541823,67.41 C214.661823,68.31 213.501823,68.76 212.061823,68.76 Z" id="Shape"></path>
            <path d="M235.574868,106.470938 C232.879243,106.470938 230.302055,106.127344 227.843305,105.440156 C225.384555,104.752969 223.437055,103.912188 222.000805,102.917813 L224.885493,97.216875 C226.306118,98.136875 228.020336,98.8917188 230.028149,99.4814063 C232.035961,100.071094 234.037055,100.365938 236.03143,100.365938 C238.403305,100.365938 240.114243,100.051719 241.164243,99.4232813 C242.214243,98.7948438 242.739243,97.9271875 242.739243,96.8203125 C242.739243,95.9571875 242.381899,95.29375 241.667211,94.83 C240.952524,94.36625 240.009086,94.0134375 238.836899,93.7715625 C237.664711,93.5296875 236.373774,93.31 234.964086,93.1125 C233.554399,92.915 232.143305,92.645 230.730805,92.3025 C229.318305,91.96 228.025961,91.4635938 226.853774,90.8132813 C225.681586,90.1629688 224.738149,89.27125 224.023461,88.138125 C223.308774,87.005 222.95143,85.5159375 222.95143,83.6709375 C222.95143,81.6609375 223.529243,79.9029688 224.684868,78.3970313 C225.840493,76.8910938 227.467993,75.7239063 229.567368,74.8954688 C231.666743,74.0670313 234.155805,73.6528125 237.034555,73.6528125 C239.190805,73.6528125 241.373149,73.8989063 243.581586,74.3910938 C245.790024,74.8832813 247.614868,75.571875 249.056118,76.456875 L246.172368,82.1578125 C244.666743,81.2378125 243.138618,80.6078125 241.587993,80.2678125 C240.037368,79.9278125 238.509868,79.7578125 237.005493,79.7578125 C234.728618,79.7578125 233.036274,80.0920313 231.928461,80.7604688 C230.820649,81.4289063 230.266743,82.2940625 230.266743,83.3559375 C230.266743,84.2884375 230.624243,84.9965625 231.339243,85.4803125 C232.054243,85.9640625 232.997836,86.344375 234.170024,86.62125 C235.342211,86.898125 236.633149,87.1351563 238.042836,87.3323438 C239.452524,87.5295313 240.862211,87.8007813 242.271899,88.1460938 C243.681586,88.4914063 244.972524,88.9804688 246.144711,89.6132813 C247.316899,90.2460938 248.260336,91.1203125 248.975024,92.2359375 C249.689711,93.3515625 250.047055,94.814375 250.047055,96.624375 C250.047055,98.619375 249.461899,100.35375 248.291586,101.8275 C247.121274,103.30125 245.459086,104.443594 243.305024,105.254531 C241.150961,106.065469 238.574243,106.470938 235.574868,106.470938 Z" id="Path"></path>
            <path d="M268.60929,106.470938 C265.09929,106.470938 262.380384,105.56375 260.452571,103.749375 C258.524759,101.935 257.560853,99.255625 257.560853,95.71125 L257.560853,66.976875 L265.060853,66.976875 L265.060853,95.53875 C265.060853,97.06125 265.452728,98.2417188 266.236478,99.0801563 C267.020228,99.9185938 268.12554,100.337813 269.552415,100.337813 C271.199915,100.337813 272.58554,99.89875 273.70929,99.020625 L275.852415,104.365313 C274.95179,105.069688 273.858509,105.596719 272.572571,105.946406 C271.286634,106.296094 269.96554,106.470938 268.60929,106.470938 Z M252.328665,80.2584375 L252.328665,74.27625 L273.661478,74.27625 L273.661478,80.2584375 L252.328665,80.2584375 Z" id="Shape"></path>
            <path d="M296.021915,106.470938 C292.474415,106.470938 289.36754,105.765781 286.70129,104.355469 C284.03504,102.945156 281.968946,101.002188 280.503008,98.5265625 C279.037071,96.0509375 278.304102,93.228125 278.304102,90.058125 C278.304102,86.8775 279.018321,84.050625 280.446758,81.5775 C281.875196,79.104375 283.842696,77.1653125 286.349258,75.7603125 C288.855821,74.3553125 291.69504,73.6528125 294.866915,73.6528125 C298.001915,73.6528125 300.791446,74.33625 303.235508,75.703125 C305.679571,77.07 307.600977,78.9960938 308.999727,81.4814063 C310.398477,83.9667188 311.097852,86.8953125 311.097852,90.2671875 C311.097852,90.5728125 311.086602,90.9285938 311.064102,91.3345313 C311.041602,91.7404688 311.010352,92.11375 310.970352,92.454375 L284.299415,92.454375 L284.299415,87.481875 L307.009415,87.481875 L304.050665,89.064375 C304.085665,87.2275 303.707696,85.6065625 302.916758,84.2015625 C302.125821,82.7965625 301.043165,81.6960938 299.66879,80.9001563 C298.294415,80.1042188 296.69879,79.70625 294.881915,79.70625 C293.065665,79.70625 291.460196,80.1042188 290.065508,80.9001563 C288.670821,81.6960938 287.588008,82.8053125 286.817071,84.2278125 C286.046133,85.6503125 285.660665,87.315 285.660665,89.221875 L285.660665,90.425625 C285.660665,92.348125 286.097383,94.044375 286.970821,95.514375 C287.844258,96.984375 289.079571,98.12625 290.676758,98.94 C292.273946,99.75375 294.125977,100.160625 296.232852,100.160625 C298.031602,100.160625 299.647383,99.8734375 301.080196,99.2990625 C302.513008,98.7246875 303.786915,97.8459375 304.901915,96.6628125 L308.951915,101.295938 C307.490665,102.980938 305.668477,104.264688 303.485352,105.147188 C301.302227,106.029688 298.814415,106.470938 296.021915,106.470938 Z" id="Path"></path>
            <path d="M358.693721,73.6528125 C361.278096,73.6528125 363.560283,74.1540625 365.540283,75.1565625 C367.520283,76.1590625 369.071533,77.6967188 370.194033,79.7695313 C371.316533,81.8423438 371.877783,84.494375 371.877783,87.725625 L371.877783,106.08 L364.377783,106.08 L364.377783,88.7071875 C364.377783,85.8665625 363.75044,83.74625 362.495752,82.34625 C361.241065,80.94625 359.464346,80.24625 357.165596,80.24625 C355.529971,80.24625 354.078721,80.6029688 352.811846,81.3164063 C351.544971,82.0298438 350.564815,83.0865625 349.871377,84.4865625 C349.17794,85.8865625 348.831221,87.6571875 348.831221,89.7984375 L348.831221,106.08 L341.331221,106.08 L341.331221,88.7071875 C341.331221,85.8665625 340.706377,83.74625 339.45669,82.34625 C338.207002,80.94625 336.427471,80.24625 334.118096,80.24625 C332.482471,80.24625 331.031221,80.6029688 329.764346,81.3164063 C328.497471,82.0298438 327.517315,83.0865625 326.823877,84.4865625 C326.13044,85.8865625 325.783721,87.6571875 325.783721,89.7984375 L325.783721,106.08 L318.283721,106.08 L318.283721,74.04375 L325.436846,74.04375 L325.436846,82.5759375 L324.155283,80.04 C325.220908,77.978125 326.785127,76.398125 328.84794,75.3 C330.910752,74.201875 333.274346,73.6528125 335.938721,73.6528125 C338.923096,73.6528125 341.525283,74.3940625 343.745283,75.8765625 C345.965283,77.3590625 347.437783,79.6159375 348.162783,82.6471875 L345.224658,81.6215625 C346.250283,79.2146875 347.96544,77.2848438 350.370127,75.8320313 C352.774815,74.3792188 355.549346,73.6528125 358.693721,73.6528125 Z" id="Path"></path>
            <path d="M0,179.08 L18.8821875,137.08 L26.585625,137.08 L45.5203125,179.08 L37.3575,179.08 L21.133125,141.240625 L24.2503125,141.240625 L8.0259375,179.08 L0,179.08 Z M8.7253125,169.357187 L10.8103125,163.231562 L33.474375,163.231562 L35.6109375,169.357187 L8.7253125,169.357187 Z" id="Shape"></path>
            <path d="M50.1489366,179.08 L50.1489366,147.04375 L57.3020616,147.04375 L57.3020616,155.846875 L56.4564366,153.2875 C57.3864366,151.110625 58.8904991,149.460625 60.9686241,148.3375 C63.0467491,147.214375 65.6083116,146.652813 68.6533116,146.652813 L68.6533116,153.79375 C68.3320616,153.74875 68.0372178,153.715 67.7687803,153.6925 C67.5003428,153.67 67.2304991,153.65875 66.9592491,153.65875 C64.1186241,153.65875 61.8567491,154.484688 60.1736241,156.136563 C58.4904991,157.788438 57.6489366,160.262813 57.6489366,163.559688 L57.6489366,179.08 L50.1489366,179.08 Z" id="Path"></path>
            <path d="M92.4868506,179.08 L92.4868506,172.58125 L92.1015381,171.229375 L92.1015381,159.87625 C92.1015381,157.684375 91.4373194,155.976875 90.1088819,154.75375 C88.7804444,153.530625 86.7724756,152.919063 84.0849756,152.919063 C82.2912256,152.919063 80.5299756,153.20125 78.8012256,153.765625 C77.0724756,154.33 75.5984131,155.099375 74.3790381,156.07375 L71.4690381,150.633438 C73.1802881,149.329063 75.2279444,148.339531 77.6120069,147.664844 C79.9960694,146.990156 82.4681006,146.652813 85.0281006,146.652813 C89.6581006,146.652813 93.2445069,147.764688 95.7873194,149.988438 C98.3301319,152.212188 99.6015381,155.64625 99.6015381,160.290625 L99.6015381,179.08 L92.4868506,179.08 Z M82.4546631,179.470938 C80.0190381,179.470938 77.9012256,179.063125 76.1012256,178.2475 C74.3012256,177.431875 72.9149756,176.297656 71.9424756,174.844844 C70.9699756,173.392031 70.4837256,171.743125 70.4837256,169.898125 C70.4837256,168.09125 70.9193506,166.473906 71.7906006,165.046094 C72.6618506,163.618281 74.0768506,162.480938 76.0356006,161.634063 C77.9943506,160.787188 80.5865381,160.36375 83.8121631,160.36375 L93.1074756,160.36375 L93.1074756,165.33625 L84.3531006,165.33625 C81.7987256,165.33625 80.0782569,165.749063 79.1916944,166.574688 C78.3051319,167.400313 77.8618506,168.4125 77.8618506,169.61125 C77.8618506,170.963125 78.4043506,172.037188 79.4893506,172.833438 C80.5743506,173.629688 82.0696631,174.027813 83.9752881,174.027813 C85.8359131,174.027813 87.4957569,173.612344 88.9548194,172.781406 C90.4138819,171.950469 91.4627881,170.71625 92.1015381,169.07875 L93.3709131,173.569375 C92.6421631,175.451875 91.3506006,176.906094 89.4962256,177.932031 C87.6418506,178.957969 85.2946631,179.470938 82.4546631,179.470938 Z" id="Shape"></path>
            <path d="M123.954938,179.5 C120.594938,179.5 117.604938,178.79 114.984938,177.37 C112.364938,175.95 110.314938,174 108.834938,171.52 C107.354938,169.04 106.614938,166.22 106.614938,163.06 C106.614938,159.86 107.354938,157.03 108.834938,154.57 C110.314938,152.11 112.364938,150.18 114.984938,148.78 C117.604938,147.38 120.594938,146.68 123.954938,146.68 C127.074938,146.68 129.824938,147.31 132.204938,148.57 C134.584938,149.83 136.394938,151.68 137.634938,154.12 L131.874938,157.48 C130.914938,155.96 129.744938,154.84 128.364938,154.12 C126.984938,153.4 125.494938,153.04 123.894938,153.04 C122.054938,153.04 120.394938,153.44 118.914938,154.24 C117.434938,155.04 116.274938,156.19 115.434938,157.69 C114.594938,159.19 114.174938,160.98 114.174938,163.06 C114.174938,165.14 114.594938,166.93 115.434938,168.43 C116.274938,169.93 117.434938,171.08 118.914938,171.88 C120.394938,172.68 122.054938,173.08 123.894938,173.08 C125.494938,173.08 126.984938,172.72 128.364938,172 C129.744938,171.28 130.914938,170.16 131.874938,168.64 L137.634938,172 C136.394938,174.4 134.584938,176.25 132.204938,177.55 C129.824938,178.85 127.074938,179.5 123.954938,179.5 Z M120.834938,192.76 C119.754938,192.76 118.754938,192.65 117.834938,192.43 C116.914938,192.21 116.074938,191.9 115.314938,191.5 L116.694938,187.96 C117.334938,188.28 117.984938,188.52 118.644938,188.68 C119.304938,188.84 120.014938,188.92 120.774938,188.92 C121.934938,188.92 122.754938,188.72 123.234938,188.32 C123.714938,187.92 123.954938,187.4 123.954938,186.76 C123.954938,186.16 123.704938,185.68 123.204938,185.32 C122.704938,184.96 121.894938,184.78 120.774938,184.78 L118.914938,184.78 L120.534938,178.66 L124.614938,178.66 L123.774938,182.02 C125.534938,182.22 126.844938,182.79 127.704938,183.73 C128.564938,184.67 128.994938,185.78 128.994938,187.06 C128.994938,188.82 128.254938,190.21 126.774938,191.23 C125.294938,192.25 123.314938,192.76 120.834938,192.76 Z" id="Shape"></path>
            <polygon id="Path" points="143.817196 179.08 143.817196 134.56 151.317196 134.56 151.317196 179.08"></polygon>
            <path d="M180.886491,179.08 L180.886491,172.58125 L180.501178,171.229375 L180.501178,159.87625 C180.501178,157.684375 179.83696,155.976875 178.508522,154.75375 C177.180085,153.530625 175.172116,152.919063 172.484616,152.919063 C170.690866,152.919063 168.929616,153.20125 167.200866,153.765625 C165.472116,154.33 163.998053,155.099375 162.778678,156.07375 L159.868678,150.633438 C161.579928,149.329063 163.627585,148.339531 166.011647,147.664844 C168.39571,146.990156 170.867741,146.652813 173.427741,146.652813 C178.057741,146.652813 181.644147,147.764688 184.18696,149.988438 C186.729772,152.212188 188.001178,155.64625 188.001178,160.290625 L188.001178,179.08 L180.886491,179.08 Z M170.854303,179.470938 C168.418678,179.470938 166.300866,179.063125 164.500866,178.2475 C162.700866,177.431875 161.314616,176.297656 160.342116,174.844844 C159.369616,173.392031 158.883366,171.743125 158.883366,169.898125 C158.883366,168.09125 159.318991,166.473906 160.190241,165.046094 C161.061491,163.618281 162.476491,162.480938 164.435241,161.634063 C166.393991,160.787188 168.986178,160.36375 172.211803,160.36375 L181.507116,160.36375 L181.507116,165.33625 L172.752741,165.33625 C170.198366,165.33625 168.477897,165.749063 167.591335,166.574688 C166.704772,167.400313 166.261491,168.4125 166.261491,169.61125 C166.261491,170.963125 166.803991,172.037188 167.888991,172.833438 C168.973991,173.629688 170.469303,174.027813 172.374928,174.027813 C174.235553,174.027813 175.895397,173.612344 177.35446,172.781406 C178.813522,171.950469 179.862428,170.71625 180.501178,169.07875 L181.770553,173.569375 C181.041803,175.451875 179.750241,176.906094 177.895866,177.932031 C176.041491,178.957969 173.694303,179.470938 170.854303,179.470938 Z" id="Shape"></path>
            <path d="M197.590118,179.08 L197.590118,147.04375 L204.743243,147.04375 L204.743243,155.846875 L203.897618,153.2875 C204.827618,151.110625 206.331681,149.460625 208.409806,148.3375 C210.487931,147.214375 213.049493,146.652813 216.094493,146.652813 L216.094493,153.79375 C215.773243,153.74875 215.478399,153.715 215.209962,153.6925 C214.941524,153.67 214.671681,153.65875 214.400431,153.65875 C211.559806,153.65875 209.297931,154.484688 207.614806,156.136563 C205.931681,157.788438 205.090118,160.262813 205.090118,163.559688 L205.090118,179.08 L197.590118,179.08 Z" id="Path"></path>
            <polygon id="Path" points="222.494768 179.08 222.494768 147.04375 229.994768 147.04375 229.994768 179.08"></polygon>
            <polygon id="Path" points="267.408801 179.08 267.408801 162.488125 269.186301 167.239375 250.941614 137.08 259.246926 137.08 273.923489 161.382812 269.246301 161.382812 283.990364 137.08 291.661926 137.08 273.433176 167.239375 275.195676 162.488125 275.195676 179.08"></polygon>
            <path d="M311.875778,179.08 L311.875778,172.58125 L311.490465,171.229375 L311.490465,159.87625 C311.490465,157.684375 310.826246,155.976875 309.497809,154.75375 C308.169371,153.530625 306.161403,152.919063 303.473903,152.919063 C301.680153,152.919063 299.918903,153.20125 298.190153,153.765625 C296.461403,154.33 294.98734,155.099375 293.767965,156.07375 L290.857965,150.633438 C292.569215,149.329063 294.616871,148.339531 297.000934,147.664844 C299.384996,146.990156 301.857028,146.652813 304.417028,146.652813 C309.047028,146.652813 312.633434,147.764688 315.176246,149.988438 C317.719059,152.212188 318.990465,155.64625 318.990465,160.290625 L318.990465,179.08 L311.875778,179.08 Z M301.84359,179.470938 C299.407965,179.470938 297.290153,179.063125 295.490153,178.2475 C293.690153,177.431875 292.303903,176.297656 291.331403,174.844844 C290.358903,173.392031 289.872653,171.743125 289.872653,169.898125 C289.872653,168.09125 290.308278,166.473906 291.179528,165.046094 C292.050778,163.618281 293.465778,162.480938 295.424528,161.634063 C297.383278,160.787188 299.975465,160.36375 303.20109,160.36375 L312.496403,160.36375 L312.496403,165.33625 L303.742028,165.33625 C301.187653,165.33625 299.467184,165.749063 298.580621,166.574688 C297.694059,167.400313 297.250778,168.4125 297.250778,169.61125 C297.250778,170.963125 297.793278,172.037188 298.878278,172.833438 C299.963278,173.629688 301.45859,174.027813 303.364215,174.027813 C305.22484,174.027813 306.884684,173.612344 308.343746,172.781406 C309.802809,171.950469 310.851715,170.71625 311.490465,169.07875 L312.75984,173.569375 C312.03109,175.451875 310.739528,176.906094 308.885153,177.932031 C307.030778,178.957969 304.68359,179.470938 301.84359,179.470938 Z" id="Shape"></path>
            <path d="M328.579405,179.08 L328.579405,147.04375 L335.73253,147.04375 L335.73253,155.846875 L334.886905,153.2875 C335.816905,151.110625 337.320967,149.460625 339.399092,148.3375 C341.477217,147.214375 344.03878,146.652813 347.08378,146.652813 L347.08378,153.79375 C346.76253,153.74875 346.467686,153.715 346.199249,153.6925 C345.930811,153.67 345.660967,153.65875 345.389717,153.65875 C342.549092,153.65875 340.287217,154.484688 338.604092,156.136563 C336.920967,157.788438 336.079405,160.262813 336.079405,163.559688 L336.079405,179.08 L328.579405,179.08 Z" id="Path"></path>
            <polygon id="Path" points="353.484055 179.08 353.484055 147.04375 360.984055 147.04375 360.984055 179.08"></polygon>
            <path d="M380.736787,179.5 C378.056787,179.5 375.486787,179.15 373.026787,178.45 C370.566787,177.75 368.616787,176.9 367.176787,175.9 L370.056787,170.2 C371.496787,171.12 373.216787,171.88 375.216787,172.48 C377.216787,173.08 379.216787,173.38 381.216787,173.38 C383.576787,173.38 385.286787,173.06 386.346787,172.42 C387.406787,171.78 387.936787,170.92 387.936787,169.84 C387.936787,168.96 387.576787,168.29 386.856787,167.83 C386.136787,167.37 385.196787,167.02 384.036787,166.78 C382.876787,166.54 381.586787,166.32 380.166787,166.12 C378.746787,165.92 377.326787,165.65 375.906787,165.31 C374.486787,164.97 373.196787,164.47 372.036787,163.81 C370.876787,163.15 369.936787,162.26 369.216787,161.14 C368.496787,160.02 368.136787,158.54 368.136787,156.7 C368.136787,154.66 368.716787,152.89 369.876787,151.39 C371.036787,149.89 372.666787,148.73 374.766787,147.91 C376.866787,147.09 379.356787,146.68 382.236787,146.68 C384.396787,146.68 386.576787,146.92 388.776787,147.4 C390.976787,147.88 392.796787,148.56 394.236787,149.44 L391.356787,155.14 C389.836787,154.22 388.306787,153.59 386.766787,153.25 C385.226787,152.91 383.696787,152.74 382.176787,152.74 C379.896787,152.74 378.206787,153.08 377.106787,153.76 C376.006787,154.44 375.456787,155.3 375.456787,156.34 C375.456787,157.3 375.816787,158.02 376.536787,158.5 C377.256787,158.98 378.196787,159.36 379.356787,159.64 C380.516787,159.92 381.806787,160.15 383.226787,160.33 C384.646787,160.51 386.056787,160.78 387.456787,161.14 C388.856787,161.5 390.146787,161.99 391.326787,162.61 C392.506787,163.23 393.456787,164.1 394.176787,165.22 C394.896787,166.34 395.256787,167.8 395.256787,169.6 C395.256787,171.6 394.666787,173.34 393.486787,174.82 C392.306787,176.3 390.636787,177.45 388.476787,178.27 C386.316787,179.09 383.736787,179.5 380.736787,179.5 Z M379.416787,192.76 C378.336787,192.76 377.336787,192.65 376.416787,192.43 C375.496787,192.21 374.656787,191.9 373.896787,191.5 L375.276787,187.96 C375.916787,188.28 376.566787,188.52 377.226787,188.68 C377.886787,188.84 378.596787,188.92 379.356787,188.92 C380.516787,188.92 381.336787,188.72 381.816787,188.32 C382.296787,187.92 382.536787,187.4 382.536787,186.76 C382.536787,186.16 382.286787,185.68 381.786787,185.32 C381.286787,184.96 380.476787,184.78 379.356787,184.78 L377.496787,184.78 L379.116787,178.66 L383.196787,178.66 L382.356787,182.02 C384.116787,182.22 385.426787,182.79 386.286787,183.73 C387.146787,184.67 387.576787,185.78 387.576787,187.06 C387.576787,188.82 386.836787,190.21 385.356787,191.23 C383.876787,192.25 381.896787,192.76 379.416787,192.76 Z" id="Shape"></path>
            <path d="M442.182147,146.652813 C444.766522,146.652813 447.04871,147.154063 449.02871,148.156563 C451.00871,149.159063 452.55996,150.696719 453.68246,152.769531 C454.80496,154.842344 455.36621,157.494375 455.36621,160.725625 L455.36621,179.08 L447.86621,179.08 L447.86621,161.707188 C447.86621,158.866563 447.238866,156.74625 445.984178,155.34625 C444.729491,153.94625 442.952772,153.24625 440.654022,153.24625 C439.018397,153.24625 437.567147,153.602969 436.300272,154.316406 C435.033397,155.029844 434.053241,156.086563 433.359803,157.486563 C432.666366,158.886563 432.319647,160.657188 432.319647,162.798438 L432.319647,179.08 L424.819647,179.08 L424.819647,161.707188 C424.819647,158.866563 424.194803,156.74625 422.945116,155.34625 C421.695428,153.94625 419.915897,153.24625 417.606522,153.24625 C415.970897,153.24625 414.519647,153.602969 413.252772,154.316406 C411.985897,155.029844 411.005741,156.086563 410.312303,157.486563 C409.618866,158.886563 409.272147,160.657188 409.272147,162.798438 L409.272147,179.08 L401.772147,179.08 L401.772147,147.04375 L408.925272,147.04375 L408.925272,155.575938 L407.64371,153.04 C408.709335,150.978125 410.273553,149.398125 412.336366,148.3 C414.399178,147.201875 416.762772,146.652813 419.427147,146.652813 C422.411522,146.652813 425.01371,147.394063 427.23371,148.876563 C429.45371,150.359063 430.92621,152.615938 431.65121,155.647188 L428.713085,154.621563 C429.73871,152.214688 431.453866,150.284844 433.858553,148.832031 C436.263241,147.379219 439.037772,146.652813 442.182147,146.652813 Z" id="Path"></path>
            <path d="M484.659207,179.08 L484.659207,172.58125 L484.273895,171.229375 L484.273895,159.87625 C484.273895,157.684375 483.609676,155.976875 482.281238,154.75375 C480.952801,153.530625 478.944832,152.919063 476.257332,152.919063 C474.463582,152.919063 472.702332,153.20125 470.973582,153.765625 C469.244832,154.33 467.77077,155.099375 466.551395,156.07375 L463.641395,150.633438 C465.352645,149.329063 467.400301,148.339531 469.784363,147.664844 C472.168426,146.990156 474.640457,146.652813 477.200457,146.652813 C481.830457,146.652813 485.416863,147.764688 487.959676,149.988438 C490.502488,152.212188 491.773895,155.64625 491.773895,160.290625 L491.773895,179.08 L484.659207,179.08 Z M474.62702,179.470938 C472.191395,179.470938 470.073582,179.063125 468.273582,178.2475 C466.473582,177.431875 465.087332,176.297656 464.114832,174.844844 C463.142332,173.392031 462.656082,171.743125 462.656082,169.898125 C462.656082,168.09125 463.091707,166.473906 463.962957,165.046094 C464.834207,163.618281 466.249207,162.480938 468.207957,161.634063 C470.166707,160.787188 472.758895,160.36375 475.98452,160.36375 L485.279832,160.36375 L485.279832,165.33625 L476.525457,165.33625 C473.971082,165.33625 472.250613,165.749063 471.364051,166.574688 C470.477488,167.400313 470.034207,168.4125 470.034207,169.61125 C470.034207,170.963125 470.576707,172.037188 471.661707,172.833438 C472.746707,173.629688 474.24202,174.027813 476.147645,174.027813 C478.00827,174.027813 479.668113,173.612344 481.127176,172.781406 C482.586238,171.950469 483.635145,170.71625 484.273895,169.07875 L485.54327,173.569375 C484.81452,175.451875 483.522957,176.906094 481.668582,177.932031 C479.814207,178.957969 477.46702,179.470938 474.62702,179.470938 Z" id="Shape"></path>
            <path d="M511.276897,179.470938 C508.581272,179.470938 506.004084,179.127344 503.545334,178.440156 C501.086584,177.752969 499.139084,176.912188 497.702834,175.917813 L500.587522,170.216875 C502.008147,171.136875 503.722366,171.891719 505.730178,172.481406 C507.737991,173.071094 509.739084,173.365938 511.733459,173.365938 C514.105334,173.365938 515.816272,173.051719 516.866272,172.423281 C517.916272,171.794844 518.441272,170.927188 518.441272,169.820313 C518.441272,168.957188 518.083928,168.29375 517.369241,167.83 C516.654553,167.36625 515.711116,167.013438 514.538928,166.771563 C513.366741,166.529688 512.075803,166.31 510.666116,166.1125 C509.256428,165.915 507.845334,165.645 506.432834,165.3025 C505.020334,164.96 503.727991,164.463594 502.555803,163.813281 C501.383616,163.162969 500.440178,162.27125 499.725491,161.138125 C499.010803,160.005 498.653459,158.515938 498.653459,156.670938 C498.653459,154.660938 499.231272,152.902969 500.386897,151.397031 C501.542522,149.891094 503.170022,148.723906 505.269397,147.895469 C507.368772,147.067031 509.857834,146.652813 512.736584,146.652813 C514.892834,146.652813 517.075178,146.898906 519.283616,147.391094 C521.492053,147.883281 523.316897,148.571875 524.758147,149.456875 L521.874397,155.157813 C520.368772,154.237813 518.840647,153.607813 517.290022,153.267813 C515.739397,152.927813 514.211897,152.757813 512.707522,152.757813 C510.430647,152.757813 508.738303,153.092031 507.630491,153.760469 C506.522678,154.428906 505.968772,155.294063 505.968772,156.355938 C505.968772,157.288438 506.326272,157.996563 507.041272,158.480313 C507.756272,158.964063 508.699866,159.344375 509.872053,159.62125 C511.044241,159.898125 512.335178,160.135156 513.744866,160.332344 C515.154553,160.529531 516.564241,160.800781 517.973928,161.146094 C519.383616,161.491406 520.674553,161.980469 521.846741,162.613281 C523.018928,163.246094 523.962366,164.120313 524.677053,165.235938 C525.391741,166.351563 525.749084,167.814375 525.749084,169.624375 C525.749084,171.619375 525.163928,173.35375 523.993616,174.8275 C522.823303,176.30125 521.161116,177.443594 519.007053,178.254531 C516.852991,179.065469 514.276272,179.470938 511.276897,179.470938 Z" id="Path"></path>
            <polygon id="Path" points="532.285069 179.08 532.285069 147.04375 539.785069 147.04375 539.785069 179.08"></polygon>
        </g>
    </g>
</svg>